<svg width="49" height="31" viewBox="0 0 49 31" fill="none" xmlns="http://www.w3.org/2000/svg">
<path d="M40.0786 30.3864H11.0971C8.13679 30.3363 5.31471 29.1252 3.23896 27.014C1.16322 24.9029 0 22.0607 0 19.1C0 16.1393 1.16322 13.2971 3.23896 11.186C5.31471 9.07482 8.13679 7.86371 11.0971 7.81364H13.3135C14.413 5.48522 16.1493 3.51568 18.3214 2.13291C20.4936 0.750141 23.0129 0.0106559 25.5878 0C29.089 0.0320842 32.4467 1.39629 34.9781 3.81531C37.5095 6.23432 39.0247 9.52656 39.2157 13.0227H40.0786C42.3563 13.0603 44.5281 13.9915 46.1256 15.6156C47.7231 17.2396 48.6184 19.4265 48.6184 21.7045C48.6184 23.9826 47.7231 26.1695 46.1256 27.7935C44.5281 29.4176 42.3563 30.3488 40.0786 30.3864V30.3864ZM11.0971 9.55C8.59739 9.60011 6.217 10.6283 4.46692 12.4138C2.71684 14.1993 1.73658 16.5998 1.73658 19.1C1.73658 21.6002 2.71684 24.0007 4.46692 25.7862C6.217 27.5717 8.59739 28.5999 11.0971 28.65H40.0786C41.8957 28.6124 43.6258 27.8642 44.8977 26.5657C46.1695 25.2673 46.8819 23.5221 46.8819 21.7045C46.8819 19.887 46.1695 18.1418 44.8977 16.8434C43.6258 15.5449 41.8957 14.7967 40.0786 14.7591H38.3738C38.1435 14.7591 37.9227 14.6676 37.7599 14.5048C37.5971 14.342 37.5056 14.1212 37.5056 13.8909C37.5331 10.6999 36.2938 7.62821 34.0597 5.34965C31.8255 3.07108 28.7788 1.77164 25.5878 1.73636C23.2544 1.74873 20.976 2.44596 19.0352 3.74154C17.0945 5.03713 15.5769 6.87404 14.6707 9.02434C14.6037 9.18037 14.4923 9.31331 14.3505 9.40674C14.2087 9.50017 14.0427 9.54999 13.8729 9.55H11.0971Z" fill="#3F3D56"/>
</svg>
