<svg width="49" height="42" viewBox="0 0 49 42" fill="none" xmlns="http://www.w3.org/2000/svg">
<path d="M40.0785 30.3864H36.5937C36.3635 30.3864 36.1427 30.2949 35.9798 30.1321C35.817 29.9693 35.7255 29.7484 35.7255 29.5182C35.7255 29.2879 35.817 29.0671 35.9798 28.9043C36.1427 28.7415 36.3635 28.65 36.5937 28.65H40.0785C41.8957 28.6124 43.6258 27.8642 44.8977 26.5657C46.1695 25.2673 46.8819 23.5221 46.8819 21.7045C46.8819 19.887 46.1695 18.1418 44.8977 16.8434C43.6258 15.5449 41.8957 14.7967 40.0785 14.7591H38.3738C38.1435 14.7591 37.9227 14.6676 37.7599 14.5048C37.5971 14.342 37.5056 14.1212 37.5056 13.8909C37.5331 10.6999 36.2938 7.62821 34.0596 5.34965C31.8254 3.07108 28.7787 1.77164 25.5878 1.73636C23.2544 1.74873 20.9759 2.44596 19.0352 3.74154C17.0945 5.03713 15.5768 6.87404 14.6707 9.02434C14.6036 9.18037 14.4923 9.31331 14.3505 9.40674C14.2087 9.50017 14.0427 9.54999 13.8728 9.55H11.097C8.59736 9.60011 6.217 10.6283 4.46692 12.4138C2.71684 14.1993 1.73658 16.5998 1.73658 19.1C1.73658 21.6002 2.71684 24.0007 4.46692 25.7862C6.217 27.5717 8.59736 28.5999 11.097 28.65H13.7885C14.0187 28.65 14.2395 28.7415 14.4024 28.9043C14.5652 29.0671 14.6567 29.2879 14.6567 29.5182C14.6567 29.7484 14.5652 29.9693 14.4024 30.1321C14.2395 30.2949 14.0187 30.3864 13.7885 30.3864H11.097C8.13677 30.3363 5.31468 29.1252 3.23894 27.014C1.16319 24.9029 0 22.0607 0 19.1C0 16.1393 1.16319 13.2971 3.23894 11.186C5.31468 9.07482 8.13677 7.86371 11.097 7.81364H13.3135C14.413 5.48522 16.1493 3.51568 18.3214 2.13291C20.4936 0.750141 23.0129 0.0106559 25.5878 0C29.089 0.0320842 32.4467 1.39629 34.9781 3.81531C37.5095 6.23432 39.0247 9.52656 39.2157 13.0227H40.0785C42.3563 13.0603 44.528 13.9915 46.1256 15.6156C47.7231 17.2396 48.6183 19.4265 48.6183 21.7045C48.6183 23.9826 47.7231 26.1695 46.1256 27.7935C44.528 29.4176 42.3563 30.3488 40.0785 30.3864V30.3864Z" fill="#3F3D56"/>
<path d="M25.4441 34.1343C25.2139 34.1343 24.993 34.0428 24.8302 33.88C24.6674 33.7172 24.5759 33.4963 24.5759 33.2661V23.282C24.5759 23.0517 24.6674 22.8309 24.8302 22.6681C24.993 22.5053 25.2139 22.4138 25.4441 22.4138C25.6744 22.4138 25.8952 22.5053 26.058 22.6681C26.2208 22.8309 26.3123 23.0517 26.3123 23.282V33.2661C26.3123 33.4963 26.2208 33.7172 26.058 33.88C25.8952 34.0428 25.6744 34.1343 25.4441 34.1343V34.1343Z" fill="#3F3D56"/>
<path d="M19.3667 39.3434C19.1365 39.3434 18.9156 39.2519 18.7528 39.0891C18.59 38.9263 18.4985 38.7055 18.4985 38.4752V28.4911C18.4985 28.2609 18.59 28.04 18.7528 27.8772C18.9156 27.7144 19.1365 27.6229 19.3667 27.6229C19.597 27.6229 19.8178 27.7144 19.9806 27.8772C20.1434 28.04 20.2349 28.2609 20.2349 28.4911V38.4752C20.2349 38.7055 20.1434 38.9263 19.9806 39.0891C19.8178 39.2519 19.597 39.3434 19.3667 39.3434Z" fill="#3F3D56"/>
<path d="M31.5213 41.9479C31.291 41.9479 31.0702 41.8564 30.9074 41.6936C30.7446 41.5308 30.6531 41.3099 30.6531 41.0797V31.0956C30.6531 30.8653 30.7446 30.6445 30.9074 30.4817C31.0702 30.3189 31.291 30.2274 31.5213 30.2274C31.7515 30.2274 31.9723 30.3189 32.1351 30.4817C32.298 30.6445 32.3894 30.8653 32.3894 31.0956V41.0797C32.3894 41.3099 32.298 41.5308 32.1351 41.6936C31.9723 41.8564 31.7515 41.9479 31.5213 41.9479V41.9479Z" fill="#3F3D56"/>
</svg>
