<svg width="49" height="50" viewBox="0 0 49 50" fill="none" xmlns="http://www.w3.org/2000/svg">
<path d="M24.7432 35.1614C22.6827 35.1614 20.6684 34.5503 18.9552 33.4056C17.2419 32.2608 15.9066 30.6337 15.1181 28.73C14.3295 26.8264 14.1232 24.7316 14.5252 22.7107C14.9272 20.6898 15.9194 18.8334 17.3764 17.3764C18.8334 15.9194 20.6898 14.9272 22.7107 14.5252C24.7316 14.1232 26.8264 14.3295 28.7301 15.118C30.6337 15.9066 32.2608 17.2419 33.4056 18.9552C34.5504 20.6684 35.1614 22.6827 35.1614 24.7432C35.1582 27.5053 34.0596 30.1534 32.1065 32.1065C30.1534 34.0596 27.5053 35.1582 24.7432 35.1614V35.1614ZM24.7432 16.0614C23.0261 16.0614 21.3476 16.5705 19.9198 17.5245C18.4921 18.4785 17.3794 19.8344 16.7223 21.4208C16.0651 23.0072 15.8932 24.7528 16.2282 26.4369C16.5632 28.121 17.3901 29.668 18.6042 30.8822C19.8184 32.0963 21.3654 32.9232 23.0495 33.2582C24.7336 33.5932 26.4792 33.4213 28.0656 32.7641C29.652 32.107 31.0079 30.9943 31.9619 29.5665C32.9158 28.1388 33.425 26.4603 33.425 24.7432C33.4224 22.4414 32.5069 20.2347 30.8793 18.6071C29.2517 16.9795 27.045 16.064 24.7432 16.0614V16.0614Z" fill="#3F3D56"/>
<path d="M24.4013 11.7205C24.1711 11.7205 23.9502 11.629 23.7874 11.4662C23.6246 11.3033 23.5331 11.0825 23.5331 10.8523V0.868182C23.5331 0.637926 23.6246 0.417113 23.7874 0.254297C23.9502 0.0914815 24.1711 0 24.4013 0C24.6316 0 24.8524 0.0914815 25.0152 0.254297C25.178 0.417113 25.2695 0.637926 25.2695 0.868182V10.8523C25.2695 11.0825 25.178 11.3033 25.0152 11.4662C24.8524 11.629 24.6316 11.7205 24.4013 11.7205Z" fill="#3F3D56"/>
<path d="M10.8523 25.2697H0.868182C0.637926 25.2697 0.4171 25.1783 0.254284 25.0155C0.0914682 24.8527 0 24.6318 0 24.4016C0 24.1713 0.0914682 23.9505 0.254284 23.7877C0.4171 23.6249 0.637926 23.5334 0.868182 23.5334H10.8523C11.0825 23.5334 11.3034 23.6249 11.4662 23.7877C11.629 23.9505 11.7205 24.1713 11.7205 24.4016C11.7205 24.6318 11.629 24.8527 11.4662 25.0155C11.3034 25.1783 11.0825 25.2697 10.8523 25.2697Z" fill="#3F3D56"/>
<path d="M47.316 25.2697H37.3319C37.1016 25.2697 36.8808 25.1783 36.718 25.0155C36.5552 24.8527 36.4637 24.6318 36.4637 24.4016C36.4637 24.1713 36.5552 23.9505 36.718 23.7877C36.8808 23.6249 37.1016 23.5334 37.3319 23.5334H47.316C47.5462 23.5334 47.767 23.6249 47.9299 23.7877C48.0927 23.9505 48.1842 24.1713 48.1842 24.4016C48.1842 24.6318 48.0927 24.8527 47.9299 25.0155C47.767 25.1783 47.5462 25.2697 47.316 25.2697Z" fill="#3F3D56"/>
<path d="M37.0576 15.7769C36.8847 15.777 36.7158 15.7254 36.5725 15.6288C36.4292 15.5322 36.3179 15.3951 36.253 15.2349C36.1881 15.0747 36.1724 14.8988 36.2081 14.7297C36.2437 14.5606 36.329 14.406 36.4531 14.2856L40.6342 10.2291C40.7994 10.0688 41.0216 9.98073 41.2519 9.98423C41.4821 9.98773 41.7015 10.0825 41.8618 10.2478C42.0222 10.4131 42.1103 10.6353 42.1068 10.8655C42.1033 11.0957 42.0085 11.3151 41.8432 11.4755L37.6621 15.5319C37.5003 15.6894 37.2833 15.7773 37.0576 15.7769V15.7769Z" fill="#3F3D56"/>
<path d="M11.5606 15.7769C11.3349 15.7773 11.118 15.6893 10.9561 15.5319L6.77504 11.4755C6.6932 11.3961 6.62782 11.3013 6.58259 11.1967C6.53737 11.092 6.51318 10.9795 6.51145 10.8655C6.50972 10.7515 6.53047 10.6383 6.5725 10.5323C6.61452 10.4263 6.67701 10.3296 6.7564 10.2478C6.83578 10.166 6.9305 10.1006 7.03516 10.0553C7.13982 10.0101 7.25236 9.98596 7.36636 9.98423C7.48036 9.9825 7.59359 10.0032 7.69957 10.0452C7.80556 10.0873 7.90221 10.1498 7.98405 10.2291L12.1652 14.2856C12.2892 14.406 12.3745 14.5606 12.4102 14.7297C12.4458 14.8988 12.4302 15.0747 12.3652 15.2349C12.3003 15.3951 12.1891 15.5322 12.0457 15.6288C11.9024 15.7254 11.7335 15.777 11.5606 15.7769Z" fill="#3F3D56"/>
<path d="M8.24773 39.5023C8.07712 39.5023 7.91031 39.4519 7.76812 39.3577C7.62593 39.2634 7.51466 39.1293 7.44821 38.9722C7.38176 38.815 7.36307 38.6418 7.39448 38.4741C7.42588 38.3064 7.50598 38.1517 7.62478 38.0292L11.8059 33.7235C11.9663 33.5583 12.1858 33.4636 12.4161 33.4602C12.6464 33.4568 12.8685 33.545 13.0338 33.7055C13.199 33.8659 13.2937 34.0854 13.2971 34.3157C13.3004 34.5459 13.2122 34.7681 13.0518 34.9333L8.87068 39.2391C8.78978 39.3224 8.69295 39.3887 8.58594 39.4339C8.47892 39.4792 8.36391 39.5024 8.24773 39.5023V39.5023Z" fill="#3F3D56"/>
<path d="M42.1069 40.3705C41.991 40.3707 41.8763 40.3476 41.7696 40.3026C41.6629 40.2576 41.5663 40.1916 41.4856 40.1085L36.4363 34.9346C36.3567 34.853 36.294 34.7565 36.2516 34.6507C36.2093 34.5449 36.1882 34.4317 36.1896 34.3177C36.191 34.2038 36.2149 34.0912 36.2598 33.9864C36.3047 33.8817 36.3698 33.7868 36.4514 33.7071C36.533 33.6275 36.6294 33.5648 36.7353 33.5225C36.8411 33.4801 36.9542 33.4591 37.0682 33.4605C37.1822 33.4619 37.2948 33.4857 37.3996 33.5306C37.5043 33.5755 37.5992 33.6406 37.6788 33.7222L42.7281 38.8961C42.8474 39.0183 42.9281 39.173 42.9599 39.3408C42.9917 39.5087 42.9733 39.6821 42.907 39.8396C42.8406 39.997 42.7294 40.1313 42.587 40.2257C42.4447 40.3202 42.2777 40.3705 42.1069 40.3705Z" fill="#3F3D56"/>
<path d="M24.4013 49.0523C24.1711 49.0523 23.9502 48.9608 23.7874 48.798C23.6246 48.6352 23.5331 48.4144 23.5331 48.1841V38.2C23.5331 37.9698 23.6246 37.749 23.7874 37.5861C23.9502 37.4233 24.1711 37.3318 24.4013 37.3318C24.6316 37.3318 24.8524 37.4233 25.0152 37.5861C25.178 37.749 25.2695 37.9698 25.2695 38.2V48.1841C25.2695 48.4144 25.178 48.6352 25.0152 48.798C24.8524 48.9608 24.6316 49.0523 24.4013 49.0523Z" fill="#3F3D56"/>
</svg>
