<svg width="106" height="107" viewBox="0 0 106 107" fill="none" xmlns="http://www.w3.org/2000/svg">
<path d="M53.9735 76.6991C49.4788 76.6991 45.085 75.3663 41.3478 72.8692C37.6106 70.372 34.6978 66.8228 32.9777 62.6702C31.2576 58.5176 30.8076 53.9483 31.6845 49.5399C32.5614 45.1316 34.7258 41.0822 37.904 37.904C41.0823 34.7257 45.1316 32.5613 49.5399 31.6845C53.9483 30.8076 58.5176 31.2576 62.6702 32.9777C66.8228 34.6977 70.3721 37.6105 72.8692 41.3477C75.3663 45.0849 76.6992 49.4787 76.6992 53.9734C76.6923 59.9985 74.2957 65.7749 70.0353 70.0353C65.7749 74.2957 59.9986 76.6922 53.9735 76.6991ZM53.9735 35.0354C50.2279 35.0354 46.5664 36.1461 43.4521 38.227C40.3377 40.308 37.9104 43.2657 36.477 46.7262C35.0436 50.1867 34.6686 53.9945 35.3993 57.6681C36.1301 61.3417 37.9337 64.7162 40.5822 67.3647C43.2308 70.0132 46.6052 71.8169 50.2789 72.5476C53.9525 73.2784 57.7603 72.9033 61.2208 71.4699C64.6813 70.0366 67.639 67.6092 69.7199 64.4949C71.8008 61.3805 72.9116 57.719 72.9116 53.9734C72.9059 48.9525 70.9088 44.1388 67.3584 40.5885C63.8081 37.0381 58.9944 35.0411 53.9735 35.0354Z" fill="#F8EE08"/>
<path d="M53.2277 25.5664C52.7254 25.5664 52.2437 25.3668 51.8886 25.0117C51.5334 24.6565 51.3339 24.1748 51.3339 23.6726V1.8938C51.3339 1.39153 51.5334 0.909836 51.8886 0.554679C52.2437 0.199521 52.7254 0 53.2277 0C53.7299 0 54.2116 0.199521 54.5668 0.554679C54.9219 0.909836 55.1215 1.39153 55.1215 1.8938V23.6726C55.1215 24.1748 54.9219 24.6565 54.5668 25.0117C54.2116 25.3668 53.7299 25.5664 53.2277 25.5664Z" fill="#F8EE08"/>
<path d="M23.6726 55.1219H1.89379C1.39152 55.1219 0.909836 54.9224 0.554679 54.5672C0.199521 54.2121 0 53.7304 0 53.2281C0 52.7259 0.199521 52.2442 0.554679 51.889C0.909836 51.5338 1.39152 51.3343 1.89379 51.3343H23.6726C24.1748 51.3343 24.6565 51.5338 25.0117 51.889C25.3668 52.2442 25.5664 52.7259 25.5664 53.2281C25.5664 53.7304 25.3668 54.2121 25.0117 54.5672C24.6565 54.9224 24.1748 55.1219 23.6726 55.1219H23.6726Z" fill="#F8EE08"/>
<path d="M103.212 55.1219H81.4336C80.9313 55.1219 80.4496 54.9224 80.0945 54.5672C79.7393 54.2121 79.5398 53.7304 79.5398 53.2281C79.5398 52.7259 79.7393 52.2442 80.0945 51.889C80.4496 51.5338 80.9313 51.3343 81.4336 51.3343H103.212C103.715 51.3343 104.196 51.5338 104.551 51.889C104.907 52.2442 105.106 52.7259 105.106 53.2281C105.106 53.7304 104.907 54.2121 104.551 54.5672C104.196 54.9224 103.715 55.1219 103.212 55.1219Z" fill="#F8EE08"/>
<path d="M80.8354 34.4149C80.4584 34.4149 80.0899 34.3024 79.7772 34.0918C79.4646 33.8811 79.2219 33.5819 79.0803 33.2325C78.9386 32.8831 78.9045 32.4994 78.9822 32.1305C79.06 31.7616 79.2461 31.4243 79.5167 31.1618L88.6372 22.3132C88.8156 22.1396 89.0264 22.0028 89.2578 21.9107C89.4891 21.8187 89.7363 21.7731 89.9852 21.7767C90.2342 21.7803 90.48 21.8329 90.7086 21.9315C90.9372 22.0302 91.1441 22.173 91.3174 22.3517C91.4908 22.5304 91.6272 22.7415 91.7189 22.973C91.8105 23.2045 91.8557 23.4518 91.8517 23.7007C91.8477 23.9496 91.7946 24.1953 91.6956 24.4238C91.5965 24.6522 91.4534 24.8588 91.2744 25.0319L82.154 33.8804C81.8011 34.2239 81.3278 34.4157 80.8354 34.4149V34.4149Z" fill="#F8EE08"/>
<path d="M25.2177 34.4149C24.7253 34.4156 24.2521 34.2238 23.8991 33.8804L14.7787 25.0319C14.5997 24.8588 14.4566 24.6522 14.3575 24.4238C14.2585 24.1953 14.2054 23.9496 14.2014 23.7007C14.1974 23.4518 14.2425 23.2045 14.3342 22.973C14.4259 22.7415 14.5623 22.5304 14.7357 22.3517C14.909 22.173 15.1159 22.0302 15.3445 21.9315C15.5731 21.8329 15.8189 21.7803 16.0678 21.7767C16.3168 21.7731 16.564 21.8187 16.7953 21.9107C17.0266 22.0028 17.2375 22.1396 17.4159 22.3132L26.5363 31.1618C26.807 31.4243 26.9931 31.7616 27.0708 32.1305C27.1486 32.4994 27.1145 32.8831 26.9728 33.2325C26.8312 33.5819 26.5885 33.8811 26.2758 34.0918C25.9632 34.3024 25.5947 34.4149 25.2177 34.4149V34.4149Z" fill="#F8EE08"/>
<path d="M17.9911 86.1681C17.619 86.168 17.2551 86.0582 16.9449 85.8526C16.6348 85.6469 16.3921 85.3544 16.2471 85.0116C16.1022 84.6689 16.0614 84.291 16.1299 83.9252C16.1984 83.5594 16.3731 83.2219 16.6323 82.9548L25.7527 73.5625C26.1028 73.2026 26.5814 72.9964 27.0835 72.9893C27.5855 72.9821 28.0698 73.1746 28.43 73.5243C28.7902 73.8741 28.9968 74.3526 29.0044 74.8546C29.0119 75.3566 28.8199 75.8411 28.4704 76.2016L19.35 85.5939C19.1736 85.7758 18.9623 85.9203 18.7289 86.019C18.4954 86.1176 18.2446 86.1684 17.9911 86.1681V86.1681Z" fill="#F8EE08"/>
<path d="M91.8496 88.062C91.5969 88.0624 91.3467 88.0121 91.1139 87.9139C90.8811 87.8157 90.6704 87.6717 90.4944 87.4905L79.4801 76.2044C79.3061 76.0265 79.1688 75.8161 79.0761 75.5851C78.9834 75.3541 78.9372 75.1071 78.9401 74.8583C78.9429 74.6094 78.9949 74.3635 79.0928 74.1347C79.1908 73.906 79.3329 73.6987 79.511 73.5249C79.6892 73.3511 79.8998 73.2141 80.131 73.1218C80.3621 73.0295 80.6091 72.9836 80.858 72.9868C81.1068 72.9901 81.3526 73.0423 81.5813 73.1406C81.8099 73.2389 82.0169 73.3814 82.1905 73.5597L93.2047 84.8458C93.4651 85.1124 93.6409 85.4499 93.7103 85.816C93.7797 86.182 93.7396 86.5604 93.5949 86.9038C93.4502 87.2472 93.2074 87.5402 92.897 87.7462C92.5865 87.9523 92.2222 88.0621 91.8496 88.062V88.062Z" fill="#F8EE08"/>
<path d="M53.2277 107C52.7254 107 52.2437 106.8 51.8886 106.445C51.5334 106.09 51.3339 105.608 51.3339 105.106V83.3274C51.3339 83.0787 51.3828 82.8325 51.478 82.6027C51.5732 82.3729 51.7127 82.1642 51.8886 81.9883C52.0644 81.8124 52.2732 81.6729 52.5029 81.5778C52.7327 81.4826 52.979 81.4336 53.2277 81.4336C53.4764 81.4336 53.7226 81.4826 53.9524 81.5778C54.1822 81.6729 54.3909 81.8124 54.5668 81.9883C54.7426 82.1642 54.8822 82.3729 54.9773 82.6027C55.0725 82.8325 55.1215 83.0787 55.1215 83.3274V105.106C55.1215 105.608 54.9219 106.09 54.5668 106.445C54.2116 106.8 53.7299 107 53.2277 107V107Z" fill="#F8EE08"/>
<ellipse cx="53.9435" cy="54.6532" rx="19.8739" ry="20.5837" fill="#F8EE08"/>
</svg>
